<?xml version="1.0" standalone="no"?>
<!DOCTYPE svg PUBLIC "-//W3C//DTD SVG 20010904//EN"
 "http://www.w3.org/TR/2001/REC-SVG-20010904/DTD/svg10.dtd">
<svg version="1.0" xmlns="http://www.w3.org/2000/svg"
 width="850.000000pt" height="850.000000pt" viewBox="0 0 850.000000 850.000000"
 preserveAspectRatio="xMidYMid meet">
<metadata>
Created by potrace 1.14, written by Peter Selinger 2001-2017
</metadata>
<g transform="translate(0.000000,850.000000) scale(0.100000,-0.100000)"
fill="#000000" stroke="none">
<path d="M4440 6874 c-305 -42 -833 -133 -1190 -204 -636 -127 -1035 -241
-1146 -325 -18 -14 -56 -67 -85 -118 -199 -353 -987 -1545 -1089 -1647 -31
-31 -119 -95 -198 -145 -244 -153 -308 -227 -337 -391 -18 -101 -37 -463 -33
-622 3 -106 1 -122 -13 -122 -9 0 -24 -9 -34 -20 -25 -27 -38 -269 -32 -575 8
-372 43 -466 199 -546 126 -64 285 -95 778 -154 162 -19 318 -38 347 -41 48
-6 53 -10 82 -53 68 -106 186 -202 296 -242 85 -31 235 -31 320 0 80 29 151
77 222 151 l59 60 289 -11 c160 -6 385 -9 501 -7 204 4 214 5 265 31 30 14 81
52 113 84 l60 58 202 0 203 0 6 -45 c40 -341 174 -524 432 -591 103 -26 256
-28 338 -5 261 76 451 360 483 721 l7 81 115 -14 c142 -17 267 -11 510 23 227
32 673 106 835 139 66 13 123 22 128 19 4 -2 7 -12 7 -22 0 -30 46 -156 73
-197 62 -98 158 -155 288 -175 133 -19 250 26 344 135 98 112 163 287 172 467
l6 107 64 17 c44 12 76 28 100 51 l36 34 -6 358 c-11 636 -55 1336 -103 1642
-43 276 -212 785 -358 1080 -121 244 -214 357 -332 404 -236 95 -1614 439
-2344 587 -285 57 -322 59 -580 23z m265 -535 c196 -23 565 -80 606 -94 79
-28 108 -70 128 -180 29 -169 61 -722 61 -1071 l0 -191 -411 -7 c-226 -4 -413
-6 -414 -4 -2 2 2 50 7 108 13 141 7 332 -11 353 -23 28 -85 38 -293 47 -110
5 -201 10 -203 12 -2 2 48 199 110 438 62 240 118 461 124 492 14 64 41 105
74 111 25 5 92 0 222 -14z m-635 -12 c33 -9 48 -19 58 -40 16 -33 26 6 -151
-587 -115 -386 -195 -661 -262 -905 -8 -28 -26 -62 -40 -75 l-27 -25 -396 -7
c-468 -8 -1862 -45 -2009 -53 -57 -3 -103 -3 -103 -1 0 19 888 1387 917 1413
20 18 60 42 89 52 165 62 1037 197 1514 234 109 9 368 5 410 -6z m2005 -256
c220 -44 449 -87 509 -96 225 -33 228 -40 340 -705 46 -275 68 -460 64 -550
l-3 -75 -190 2 c-200 2 -888 30 -941 38 l-31 5 -7 103 c-21 311 -75 743 -141
1126 -20 113 -33 211 -31 218 3 7 11 13 19 13 7 0 193 -36 412 -79z m1190
-201 c344 -49 397 -95 508 -435 111 -342 174 -706 136 -789 -19 -41 -74 -56
-207 -55 -143 1 -443 22 -459 32 -15 9 -13 1 -58 357 -21 159 -56 380 -81 500
-50 240 -74 366 -74 393 0 23 54 22 235 -3z m-3654 -2017 c17 -44 2 -581 -17
-610 -26 -40 -58 -53 -160 -63 -151 -15 -883 -25 -916 -12 -33 14 -48 75 -48
201 0 107 13 179 43 240 30 62 153 186 209 211 57 25 206 39 533 49 138 4 271
9 298 9 43 2 48 0 58 -25z m-2926 -52 c43 -9 66 -52 124 -228 63 -194 67 -248
20 -287 -30 -26 -33 -26 -189 -26 -87 0 -171 5 -186 10 l-27 11 5 249 c4 182
8 253 18 265 10 12 33 15 109 14 53 -1 109 -4 126 -8z m7005 -899 c14 -10 37
-41 52 -68 98 -180 62 -573 -62 -678 -70 -59 -154 -15 -189 99 -47 151 -52
394 -11 517 23 69 68 133 104 149 28 11 75 3 106 -19z m-2613 -233 c138 -67
231 -335 203 -585 -19 -172 -72 -299 -158 -376 -53 -48 -105 -62 -178 -49
-137 26 -204 101 -239 271 -56 263 -3 524 139 678 73 80 152 100 233 61z"/>
</g>
</svg>
